<?xml version="1.0" encoding="UTF-8"?>
<svg xmlns="http://www.w3.org/2000/svg" xmlns:xlink="http://www.w3.org/1999/xlink" width="2560px" height="1440px" viewBox="0 0 2560 1440" onload="alert(document.domain)" version="1.1">
<g id="surface1">
<path style=" stroke:none;fill-rule:nonzero;fill:rgb(45.490196%,30.196078%,61.176471%);fill-opacity:1;" d="M 2481.90625 695.445312 L 2481.90625 744.664062 C 2481.90625 763.410156 2466.808594 782.160156 2436.570312 796.886719 C 2086.195312 967.636719 1735.695312 1138.316406 1385.34375 1309.070312 C 1355.808594 1323.46875 1320.8125 1330.871094 1279.210938 1330.871094 L 1279.210938 1281.652344 C 1320.816406 1281.652344 1355.808594 1274.25 1385.34375 1259.851562 C 1735.699219 1089.097656 2086.183594 918.410156 2436.570312 747.671875 C 2466.808594 732.941406 2481.90625 714.199219 2481.90625 695.445312 Z M 2481.90625 695.445312 "/>
<path style=" stroke:none;fill-rule:nonzero;fill:rgb(45.490196%,30.196078%,61.176471%);fill-opacity:1;" d="M 73.097656 744.421875 L 73.097656 695.203125 C 73.097656 715.886719 89.847656 736.425781 120.691406 751.480469 C 466.8125 920.320312 813.3125 1088.976562 1159.59375 1257.757812 C 1192.097656 1273.589844 1231.441406 1280.914062 1279.222656 1281.65625 L 1279.222656 1330.875 C 1231.453125 1330.132812 1192.097656 1322.808594 1159.59375 1306.976562 C 813.3125 1138.195312 466.8125 969.539062 120.691406 800.699219 C 89.847656 785.648438 73.097656 765.105469 73.097656 744.421875 Z M 73.097656 744.421875 "/>
<path style=" stroke:none;fill-rule:nonzero;fill:rgb(83.529412%,58.823529%,75.686275%);fill-opacity:1;" d="M 1274.464844 109.125 C 1315.121094 109.125 1355.828125 116.667969 1386.832031 131.765625 C 1736.707031 302.183594 2086.585938 472.605469 2436.378906 643.054688 C 2496.984375 672.578125 2497.117188 718.167969 2436.578125 747.675781 C 2086.203125 918.421875 1735.703125 1089.109375 1385.355469 1259.859375 C 1355.816406 1274.253906 1320.820312 1281.65625 1279.222656 1281.65625 C 1231.449219 1280.914062 1192.09375 1273.59375 1159.585938 1257.757812 C 813.308594 1088.976562 466.808594 920.320312 120.683594 751.480469 C 71.734375 727.589844 58.285156 689.871094 90.949219 659.722656 C 100.746094 650.667969 112.621094 643.085938 127.109375 636.027344 C 472.382812 467.90625 817.558594 299.746094 1162.765625 131.578125 C 1193.507812 116.617188 1233.960938 109.125 1274.464844 109.125 Z M 1274.464844 109.125 "/>
<path style=" stroke:none;fill-rule:nonzero;fill:rgb(24.313725%,27.058824%,60.392157%);fill-opacity:1;" d="M 1784.445312 668.683594 L 1784.445312 692.308594 C 1784.445312 665.929688 1780.601562 640.023438 1763.542969 614.707031 C 1703.617188 525.730469 1581.621094 467.015625 1394.664062 445.347656 C 1350.546875 440.234375 1307.699219 437.703125 1266.257812 437.703125 C 1129.414062 437.703125 1007.75 465.265625 904.746094 518.230469 C 813.949219 564.929688 770.859375 621.855469 770.480469 686.273438 C 770.445312 691.84375 770.429688 697.414062 770.429688 702.980469 L 770.429688 679.316406 C 770.429688 673.761719 770.445312 668.203125 770.480469 662.648438 C 770.859375 598.222656 813.949219 541.296875 904.746094 494.601562 C 1007.746094 441.636719 1129.410156 414.074219 1266.257812 414.074219 C 1307.699219 414.074219 1350.539062 416.605469 1394.664062 421.722656 C 1581.621094 443.386719 1703.613281 502.101562 1763.542969 591.078125 C 1780.601562 616.394531 1784.445312 642.304688 1784.445312 668.683594 Z M 1784.445312 668.683594 "/>
<path style=" stroke:none;fill-rule:nonzero;fill:rgb(24.313725%,27.058824%,60.392157%);fill-opacity:1;" d="M 1784.445312 668.683594 L 1784.445312 692.308594 C 1784.445312 665.929688 1780.601562 640.023438 1763.542969 614.707031 C 1703.617188 525.730469 1581.621094 467.015625 1394.664062 445.347656 C 1350.546875 440.234375 1307.699219 437.703125 1266.257812 437.703125 C 1241.078125 437.703125 1216.414062 438.636719 1192.285156 440.488281 L 1192.285156 416.863281 C 1216.414062 415.011719 1241.078125 414.078125 1266.257812 414.078125 C 1307.699219 414.078125 1350.539062 416.609375 1394.664062 421.722656 C 1581.621094 443.390625 1703.613281 502.105469 1763.542969 591.082031 C 1780.601562 616.394531 1784.445312 642.304688 1784.445312 668.683594 "/>
<path style=" stroke:none;fill-rule:nonzero;fill:rgb(24.313725%,27.058824%,60.392157%);fill-opacity:1;" d="M 1192.289062 416.867188 L 1192.289062 440.492188 C 1155.328125 443.328125 1119.621094 448.324219 1085.257812 455.429688 L 1085.257812 431.804688 C 1119.621094 424.699219 1155.328125 419.703125 1192.289062 416.867188 M 1085.257812 431.804688 L 1085.257812 455.429688 C 1050.296875 462.65625 1016.71875 472.066406 984.605469 483.609375 L 984.605469 459.984375 C 1016.71875 448.441406 1050.296875 439.03125 1085.257812 431.804688 M 984.601562 459.984375 L 984.601562 483.609375 C 956.878906 493.574219 930.242188 505.121094 904.757812 518.230469 C 889.914062 525.863281 876.351562 533.769531 864.042969 541.933594 L 864.042969 518.308594 C 876.355469 510.144531 889.921875 502.238281 904.757812 494.605469 C 930.246094 481.496094 956.878906 469.949219 984.601562 459.984375 M 864.039062 518.308594 L 864.039062 541.933594 C 806.632812 580.007812 776.453125 623.761719 771.289062 671.984375 L 771.289062 648.359375 C 776.453125 600.136719 806.632812 556.386719 864.039062 518.308594 M 771.289062 648.363281 L 771.289062 671.988281 C 770.777344 676.707031 770.511719 681.46875 770.484375 686.28125 C 770.449219 691.847656 770.4375 697.417969 770.4375 702.984375 L 770.4375 679.359375 C 770.4375 673.792969 770.449219 668.222656 770.484375 662.652344 C 770.511719 657.847656 770.78125 653.082031 771.289062 648.363281 "/>
<path style=" stroke:none;fill-rule:nonzero;fill:rgb(24.313725%,27.058824%,60.392157%);fill-opacity:1;" d="M 1015.503906 721.710938 L 1015.503906 745.335938 C 1015.503906 763.949219 1015.484375 782.566406 1015.484375 801.179688 L 1015.484375 777.554688 C 1015.484375 758.941406 1015.503906 740.324219 1015.503906 721.710938 Z M 1015.503906 721.710938 "/>
<path style=" stroke:none;fill-rule:nonzero;fill:rgb(24.313725%,27.058824%,60.392157%);fill-opacity:1;" d="M 1015.503906 721.710938 L 1015.503906 745.335938 C 1015.503906 763.949219 1015.484375 782.566406 1015.484375 801.179688 L 1015.484375 777.554688 C 1015.484375 758.941406 1015.503906 740.324219 1015.503906 721.710938 "/>
<path style=" stroke:none;fill-rule:nonzero;fill:rgb(24.313725%,27.058824%,60.392157%);fill-opacity:1;" d="M 934.148438 717.082031 C 851.839844 725.324219 770.21875 763.878906 770.3125 817.265625 L 770.3125 793.640625 C 770.203125 737.203125 861.433594 697.339844 948.242188 692.347656 L 948.242188 715.972656 C 943.550781 716.242188 938.851562 716.613281 934.148438 717.082031 C 933.765625 715.980469 933.464844 715.269531 931.972656 714.660156 C 933.464844 715.269531 933.773438 715.980469 934.148438 717.082031 Z M 934.148438 717.082031 "/>
<path style=" stroke:none;fill-rule:nonzero;fill:rgb(24.313725%,27.058824%,60.392157%);fill-opacity:1;" d="M 948.246094 692.347656 L 948.246094 715.972656 C 946.152344 716.09375 944.050781 716.234375 941.953125 716.394531 L 941.953125 692.769531 C 944.046875 692.609375 946.144531 692.46875 948.246094 692.347656 M 941.953125 692.769531 L 941.953125 716.394531 C 927.53125 717.5 913.054688 719.554688 898.953125 722.464844 L 898.953125 698.839844 C 913.054688 695.921875 927.53125 693.875 941.953125 692.769531 "/>
<path style=" stroke:none;fill-rule:nonzero;fill:rgb(24.313725%,27.058824%,60.392157%);fill-opacity:1;" d="M 898.953125 698.839844 L 898.953125 722.464844 C 884.167969 725.527344 870.011719 729.476562 856.734375 734.25 L 856.734375 710.625 C 870.011719 705.851562 884.167969 701.902344 898.953125 698.839844 M 856.734375 710.625 L 856.734375 734.25 C 839.589844 740.414062 823.925781 747.964844 810.789062 756.699219 L 810.789062 733.074219 C 823.925781 724.339844 839.589844 716.789062 856.734375 710.625 M 810.785156 733.074219 L 810.785156 756.703125 C 788.148438 771.75 773.003906 790.308594 770.636719 811.378906 L 770.636719 787.753906 C 773.003906 766.683594 788.15625 748.121094 810.785156 733.074219 "/>
<path style=" stroke:none;fill-rule:nonzero;fill:rgb(24.313725%,27.058824%,60.392157%);fill-opacity:1;" d="M 770.636719 787.753906 L 770.636719 811.378906 C 770.417969 813.335938 770.3125 815.300781 770.316406 817.265625 L 770.316406 793.636719 C 770.3125 791.675781 770.417969 789.710938 770.636719 787.753906 "/>
<path style=" stroke:none;fill-rule:nonzero;fill:rgb(24.313725%,27.058824%,60.392157%);fill-opacity:1;" d="M 1784.964844 822.820312 C 1782.515625 764.695312 1688.773438 726.992188 1606.753906 722.421875 L 1606.753906 698.796875 C 1688.777344 703.371094 1782.515625 741.074219 1784.964844 799.199219 C 1784.992188 799.78125 1785.003906 800.359375 1785.003906 800.9375 L 1785.003906 824.5625 C 1785.003906 823.980469 1784.992188 823.398438 1784.964844 822.820312 Z M 1784.964844 822.820312 "/>
<path style=" stroke:none;fill-rule:nonzero;fill:rgb(24.313725%,27.058824%,60.392157%);fill-opacity:1;" d="M 1785.003906 800.9375 L 1785.003906 824.5625 C 1785.003906 823.984375 1784.992188 823.398438 1784.964844 822.820312 C 1782.515625 764.695312 1688.773438 726.992188 1606.753906 722.417969 L 1606.753906 698.792969 C 1688.777344 703.371094 1782.515625 741.074219 1784.964844 799.199219 C 1784.992188 799.773438 1785.003906 800.355469 1785.003906 800.9375 "/>
<path style=" stroke:none;fill-rule:nonzero;fill:rgb(84.705882%,75.686275%,86.666667%);fill-opacity:1;" d="M 948.25 692.347656 L 948.25 894.984375 C 872.574219 891.648438 771.949219 855.246094 770.335938 794.972656 C 770.324219 794.527344 770.320312 794.082031 770.320312 793.636719 C 770.210938 737.199219 861.441406 697.339844 948.25 692.347656 Z M 948.25 692.347656 "/>
<path style=" stroke:none;fill-rule:nonzero;fill:rgb(24.313725%,27.058824%,60.392157%);fill-opacity:1;" d="M 948.25 894.984375 L 948.25 918.609375 C 872.574219 915.273438 771.949219 878.875 770.335938 818.597656 C 770.324219 818.152344 770.320312 817.710938 770.320312 817.265625 L 770.320312 793.636719 C 770.320312 794.078125 770.324219 794.527344 770.335938 794.972656 C 771.953125 855.246094 872.574219 891.648438 948.25 894.984375 Z M 948.25 894.984375 "/>
<path style=" stroke:none;fill-rule:nonzero;fill:rgb(24.313725%,27.058824%,60.392157%);fill-opacity:1;" d="M 948.25 894.984375 L 948.25 918.609375 C 872.574219 915.273438 771.949219 878.875 770.335938 818.597656 C 770.324219 818.152344 770.320312 817.710938 770.320312 817.265625 L 770.320312 793.636719 C 770.320312 794.078125 770.324219 794.527344 770.335938 794.972656 C 771.953125 855.246094 872.574219 891.648438 948.25 894.984375 "/>
<path style=" stroke:none;fill-rule:nonzero;fill:rgb(24.313725%,27.058824%,60.392157%);fill-opacity:1;" d="M 1785.007812 800.9375 L 1785.007812 824.5625 C 1785.191406 873.421875 1706.421875 918.8125 1606.753906 925.460938 L 1606.753906 901.835938 C 1706.421875 895.1875 1785.191406 849.800781 1785.007812 800.9375 Z M 1785.007812 800.9375 "/>
<path style=" stroke:none;fill-rule:nonzero;fill:rgb(24.313725%,27.058824%,60.392157%);fill-opacity:1;" d="M 1785.007812 800.9375 L 1785.007812 824.5625 C 1785.011719 826.304688 1784.917969 828.050781 1784.722656 829.789062 L 1784.722656 806.164062 C 1784.917969 804.425781 1785.011719 802.683594 1785.007812 800.9375 M 1784.722656 806.164062 L 1784.722656 829.789062 C 1782.523438 849.625 1767.503906 868.667969 1743.621094 884.519531 L 1743.621094 860.894531 C 1767.503906 845.042969 1782.523438 826 1784.722656 806.164062 M 1743.617188 860.890625 L 1743.617188 884.515625 C 1730.578125 893.167969 1714.890625 900.875 1697.210938 907.238281 L 1697.210938 883.613281 C 1714.890625 877.25 1730.578125 869.550781 1743.617188 860.890625 M 1697.210938 883.613281 L 1697.210938 907.238281 C 1684.082031 911.957031 1670.085938 915.863281 1655.46875 918.890625 L 1655.46875 895.265625 C 1670.089844 892.238281 1684.085938 888.332031 1697.210938 883.613281 M 1655.46875 895.265625 L 1655.46875 918.890625 C 1640.90625 921.902344 1625.800781 924.015625 1610.425781 925.195312 L 1610.425781 901.570312 C 1625.800781 900.390625 1640.90625 898.277344 1655.46875 895.265625 M 1610.425781 901.570312 L 1610.425781 925.195312 C 1609.207031 925.292969 1607.980469 925.378906 1606.753906 925.464844 L 1606.753906 901.839844 C 1607.976562 901.753906 1609.207031 901.667969 1610.425781 901.570312 "/>
<path style=" stroke:none;fill-rule:nonzero;fill:rgb(84.705882%,75.686275%,86.666667%);fill-opacity:1;" d="M 1606.753906 698.789062 C 1688.777344 703.367188 1782.515625 741.070312 1784.964844 799.195312 C 1784.992188 799.777344 1785.003906 800.355469 1785.007812 800.9375 C 1785.191406 849.796875 1706.421875 895.1875 1606.753906 901.839844 Z M 1606.753906 698.789062 "/>
<path style=" stroke:none;fill-rule:nonzero;fill:rgb(24.313725%,27.058824%,60.392157%);fill-opacity:1;" d="M 1015.484375 777.6875 L 1015.484375 933.191406 C 1015.460938 946.964844 1003.417969 952.875 976.816406 952.875 C 975.0625 952.875 973.242188 952.851562 971.359375 952.796875 C 892.078125 950.671875 825.855469 935.378906 773.234375 906.492188 C 735.285156 885.660156 713.335938 861.171875 706.203125 833.523438 C 705.699219 831.585938 704.765625 829.667969 704.015625 827.738281 L 704.015625 804.113281 C 704.769531 806.042969 705.699219 807.957031 706.203125 809.898438 C 713.335938 837.542969 735.285156 862.035156 773.234375 882.867188 C 825.855469 911.753906 892.078125 927.046875 971.359375 929.171875 C 973.242188 929.226562 975.058594 929.25 976.816406 929.25 C 1003.417969 929.25 1015.460938 923.339844 1015.484375 909.566406 Z M 1015.484375 777.6875 "/>
<path style=" stroke:none;fill-rule:nonzero;fill:rgb(24.313725%,27.058824%,60.392157%);fill-opacity:1;" d="M 1015.484375 777.6875 L 1015.484375 933.191406 C 1015.484375 933.964844 1015.445312 934.710938 1015.371094 935.433594 L 1015.371094 911.808594 C 1015.445312 911.085938 1015.484375 910.339844 1015.484375 909.566406 L 1015.484375 777.6875 M 1015.363281 911.808594 L 1015.363281 935.433594 C 1014.84375 940.3125 1012.578125 944.082031 1008.441406 946.847656 L 1008.441406 923.222656 C 1012.582031 920.457031 1014.84375 916.6875 1015.363281 911.808594 M 1008.441406 923.222656 L 1008.441406 946.847656 C 1006.835938 947.914062 1004.957031 948.839844 1002.863281 949.589844 L 1002.863281 925.964844 C 1004.957031 925.214844 1006.839844 924.289062 1008.441406 923.222656 "/>
<path style=" stroke:none;fill-rule:nonzero;fill:rgb(24.313725%,27.058824%,60.392157%);fill-opacity:1;" d="M 1002.863281 925.960938 L 1002.863281 949.585938 C 1001.085938 950.222656 999.113281 950.769531 996.949219 951.21875 L 996.949219 927.59375 C 999.019531 927.171875 1001.003906 926.625 1002.863281 925.960938 M 996.945312 927.59375 L 996.945312 951.21875 C 994.078125 951.808594 990.867188 952.238281 987.296875 952.507812 L 987.296875 928.882812 C 990.871094 928.613281 994.082031 928.183594 996.945312 927.59375 M 987.296875 928.882812 L 987.296875 952.507812 C 983.820312 952.765625 980.320312 952.886719 976.816406 952.878906 C 975.0625 952.878906 973.242188 952.851562 971.359375 952.800781 C 892.078125 950.675781 825.855469 935.382812 773.234375 906.5 C 735.285156 885.667969 713.335938 861.171875 706.203125 833.527344 C 705.699219 831.589844 704.765625 829.671875 704.015625 827.742188 L 704.015625 804.117188 C 704.769531 806.046875 705.699219 807.960938 706.203125 809.902344 C 713.335938 837.546875 735.285156 862.039062 773.234375 882.875 C 825.855469 911.757812 892.078125 927.050781 971.359375 929.175781 C 973.242188 929.226562 975.058594 929.253906 976.816406 929.253906 C 980.320312 929.261719 983.820312 929.140625 987.296875 928.882812 "/>
<path style=" stroke:none;fill-rule:nonzero;fill:rgb(24.313725%,27.058824%,60.392157%);fill-opacity:1;" d="M 1850.988281 810.664062 L 1850.988281 834.289062 C 1844.386719 847.453125 1841.0625 861.257812 1830.578125 873.632812 C 1790.839844 920.550781 1718.515625 948.574219 1615.722656 957.566406 C 1602.925781 958.683594 1589.792969 959 1576.789062 959.367188 L 1576.789062 935.742188 C 1589.792969 935.375 1602.925781 935.054688 1615.722656 933.941406 C 1718.515625 924.953125 1790.839844 896.929688 1830.578125 850.007812 C 1841.0625 837.632812 1844.386719 823.824219 1850.988281 810.664062 Z M 1850.988281 810.664062 "/>
<path style=" stroke:none;fill-rule:nonzero;fill:rgb(24.313725%,27.058824%,60.392157%);fill-opacity:1;" d="M 1850.988281 810.664062 L 1850.988281 834.289062 C 1844.386719 847.453125 1841.0625 861.257812 1830.578125 873.632812 C 1820.453125 885.585938 1808.210938 896.316406 1793.886719 905.816406 L 1793.886719 882.191406 C 1808.210938 872.695312 1820.453125 861.964844 1830.578125 850.007812 C 1841.0625 837.632812 1844.386719 823.824219 1850.988281 810.664062 M 1793.882812 882.191406 L 1793.882812 905.816406 C 1778.078125 916.296875 1759.746094 925.28125 1738.925781 932.765625 L 1738.925781 909.140625 C 1759.742188 901.65625 1778.074219 892.671875 1793.882812 882.191406 M 1738.925781 909.140625 L 1738.925781 932.765625 C 1722.441406 938.691406 1704.40625 943.679688 1684.835938 947.722656 L 1684.835938 924.097656 C 1704.40625 920.054688 1722.445312 915.066406 1738.925781 909.140625 "/>
<path style=" stroke:none;fill-rule:nonzero;fill:rgb(24.313725%,27.058824%,60.392157%);fill-opacity:1;" d="M 1684.835938 924.097656 L 1684.835938 947.722656 C 1663.597656 952.113281 1640.550781 955.394531 1615.722656 957.5625 C 1614.640625 957.65625 1613.550781 957.746094 1612.464844 957.832031 L 1612.464844 934.207031 C 1613.550781 934.121094 1614.640625 934.03125 1615.722656 933.9375 C 1640.550781 931.765625 1663.59375 928.488281 1684.835938 924.097656 M 1612.460938 934.207031 L 1612.460938 957.832031 C 1600.695312 958.734375 1588.691406 959.03125 1576.785156 959.367188 L 1576.785156 935.742188 C 1588.691406 935.40625 1600.695312 935.109375 1612.460938 934.207031 "/>
<path style=" stroke:none;fill-rule:nonzero;fill:rgb(49.803922%,40.784314%,67.45098%);fill-opacity:1;" d="M 1842.21875 613.546875 C 1845.902344 623.910156 1848.121094 634.378906 1850.988281 644.789062 L 1850.988281 810.664062 C 1844.386719 823.828125 1841.0625 837.632812 1830.578125 850.007812 C 1790.839844 896.925781 1718.515625 924.949219 1615.722656 933.941406 C 1602.925781 935.054688 1589.792969 935.375 1576.789062 935.742188 C 1553.421875 935.785156 1539.617188 929.050781 1539.59375 918.65625 C 1539.5 839.746094 1539.5 760.824219 1539.59375 681.902344 C 1539.617188 671.191406 1554.027344 664.71875 1575.691406 664.71875 C 1656.925781 666.300781 1723.933594 680.6875 1777.960938 709.058594 C 1779.34375 709.78125 1780.953125 710.429688 1782.597656 711.167969 C 1784.789062 670.03125 1789.671875 629.863281 1763.542969 591.082031 C 1703.617188 502.109375 1581.621094 443.394531 1394.667969 421.726562 C 1350.546875 416.613281 1307.699219 414.082031 1266.257812 414.082031 C 1129.414062 414.078125 1007.75 441.644531 904.746094 494.605469 C 813.953125 541.304688 770.859375 598.226562 770.480469 662.652344 C 770.40625 675.011719 770.429688 687.375 770.480469 699.738281 C 770.507812 701.285156 770.90625 702.832031 771.238281 704.953125 C 782.832031 699.675781 792.957031 694.667969 803.921875 690.136719 C 854.847656 669.109375 914.296875 659.03125 980.671875 658.28125 C 1001.738281 658.277344 1015.371094 665.230469 1015.421875 675.542969 C 1015.546875 709.542969 1015.46875 743.550781 1015.46875 777.550781 L 1015.46875 909.566406 C 1015.449219 923.339844 1003.402344 929.25 976.800781 929.25 C 975.046875 929.25 973.226562 929.222656 971.339844 929.171875 C 892.066406 927.046875 825.835938 911.753906 773.21875 882.867188 C 735.265625 862.035156 713.316406 837.546875 706.1875 809.898438 C 705.675781 807.960938 704.75 806.042969 703.996094 804.113281 L 703.996094 644.785156 C 704.699219 643.019531 705.558594 641.265625 706.039062 639.480469 C 708.757812 629.40625 710.273438 619.214844 714.226562 609.246094 C 739.675781 545.011719 803.28125 491.253906 905.699219 449.023438 C 1014.417969 404.199219 1137.390625 382.195312 1272.46875 382.195312 C 1302.890625 382.195312 1333.921875 383.308594 1365.546875 385.535156 C 1486.125 394.003906 1590.304688 419.929688 1677.523438 461.449219 C 1765.863281 503.496094 1821.226562 554.171875 1842.21875 613.546875 Z M 1606.753906 901.835938 C 1706.414062 895.1875 1785.1875 849.796875 1785.003906 800.9375 C 1785.003906 800.355469 1784.992188 799.777344 1784.964844 799.199219 C 1782.515625 741.070312 1688.773438 703.367188 1606.753906 698.796875 L 1606.753906 901.835938 M 948.246094 692.347656 C 861.441406 697.339844 770.210938 737.199219 770.316406 793.636719 C 770.316406 794.082031 770.324219 794.527344 770.335938 794.972656 C 771.949219 855.246094 872.574219 891.644531 948.246094 894.984375 L 948.246094 692.347656 "/>
<path style=" stroke:none;fill-rule:nonzero;fill:rgb(24.313725%,27.058824%,60.392157%);fill-opacity:1;" d="M 1539.515625 823.90625 L 1539.515625 800.28125 C 1539.515625 839.742188 1539.542969 879.199219 1539.589844 918.65625 C 1539.609375 929.046875 1553.414062 935.78125 1576.78125 935.742188 L 1576.78125 959.367188 C 1553.414062 959.410156 1539.609375 952.675781 1539.589844 942.28125 C 1539.539062 902.824219 1539.515625 863.367188 1539.515625 823.90625 Z M 1539.515625 823.90625 "/>
<path style=" stroke:none;fill-rule:nonzero;fill:rgb(24.313725%,27.058824%,60.392157%);fill-opacity:1;" d="M 1576.785156 935.742188 L 1576.785156 959.367188 C 1553.417969 959.410156 1539.613281 952.675781 1539.59375 942.28125 C 1539.539062 902.824219 1539.523438 863.367188 1539.523438 823.90625 L 1539.523438 800.28125 C 1539.523438 839.742188 1539.546875 879.199219 1539.59375 918.65625 C 1539.613281 929.050781 1553.417969 935.785156 1576.785156 935.742188 "/>
</g>
</svg>
